<svg width="106" height="81" viewBox="0 0 106 81" fill="none" xmlns="http://www.w3.org/2000/svg">
<g opacity="0.848005" filter="url(#filter0_f_411_1)">
<rect x="28" y="28" width="50" height="25" rx="12.5" fill="#4DADF7"/>
</g>
<rect x="28" y="3" width="50" height="50" rx="19" fill="#4DADF7"/>
<path d="M58.5714 22.4286H59.4286C59.5893 22.4286 59.7143 22.3036 59.7143 22.1429V21.5714C59.7143 21.4107 59.5893 21.2857 59.4286 21.2857H46.2857C46.125 21.2857 46 21.4107 46 21.5714V22.1429C46 22.3036 46.125 22.4286 46.2857 22.4286H47.1429C47.1429 25.7321 48.7232 28.125 50.4732 29.2857C48.7232 30.4464 47.1429 32.8393 47.1429 36.1429H46.2857C46.125 36.1429 46 36.2679 46 36.4286V37C46 37.1607 46.125 37.2857 46.2857 37.2857H59.4286C59.5893 37.2857 59.7143 37.1607 59.7143 37V36.4286C59.7143 36.2679 59.5893 36.1429 59.4286 36.1429H58.5714C58.5714 32.8393 56.9911 30.4464 55.2411 29.2857C56.9911 28.125 58.5714 25.7321 58.5714 22.4286ZM57.4286 22.4286C57.4286 23.7321 57.1339 24.8839 56.6696 25.8571H49.0446C48.5804 24.8839 48.2857 23.7321 48.2857 22.4286H57.4286ZM56.9196 33.2857H48.7946C49.4554 31.5625 50.6429 30.3393 51.8304 29.8571H53.8839C55.0714 30.3393 56.2589 31.5625 56.9196 33.2857Z" fill="white"/>
<defs>
<filter id="filter0_f_411_1" x="0.817183" y="0.817183" width="104.366" height="79.3656" filterUnits="userSpaceOnUse" color-interpolation-filters="sRGB">
<feFlood flood-opacity="0" result="BackgroundImageFix"/>
<feBlend mode="normal" in="SourceGraphic" in2="BackgroundImageFix" result="shape"/>
<feGaussianBlur stdDeviation="13.5914" result="effect1_foregroundBlur_411_1"/>
</filter>
</defs>
</svg>
