<svg width="106" height="81" viewBox="0 0 106 81" fill="none" xmlns="http://www.w3.org/2000/svg">
<g opacity="0.848005" filter="url(#filter0_f_411_2)">
<rect x="28" y="28" width="50" height="25" rx="12.5" fill="#FAB005"/>
</g>
<rect x="28" y="3" width="50" height="50" rx="19" fill="#FAB005"/>
<path d="M53.4821 27.6429L54.6518 28.1875L56.3929 27.6696V26.4554C56.3929 24.3929 54.6518 22.7411 52.5714 22.7411C50.5 22.7411 48.75 24.3839 48.75 26.4286V31.9643C48.75 32.4732 48.3393 32.875 47.8393 32.875C47.3393 32.875 46.9286 32.4732 46.9286 31.9643V29.625H44C44 31.9732 44 32 44 32C44 34.1161 45.7143 35.8304 47.8304 35.8304C49.9286 35.8304 51.6607 34.1429 51.6607 32.0536V26.5893C51.6607 26.0893 52.0714 25.6786 52.5714 25.6786C53.0714 25.6786 53.4821 26.0893 53.4821 26.5893V27.6429ZM58.2143 29.625V32.0804C58.2143 32.5804 57.8036 32.9821 57.3036 32.9821C56.8036 32.9821 56.3929 32.5804 56.3929 32.0804V29.6696L54.6518 30.1875L53.4821 29.6429V32.0357C53.4821 34.1339 55.2054 35.8304 57.3125 35.8304C59.4286 35.8304 61.1429 34.1161 61.1429 32C61.1429 32 61.1429 31.9732 61.1429 29.625H58.2143Z" fill="white"/>
<defs>
<filter id="filter0_f_411_2" x="0.817183" y="0.817183" width="104.366" height="79.3656" filterUnits="userSpaceOnUse" color-interpolation-filters="sRGB">
<feFlood flood-opacity="0" result="BackgroundImageFix"/>
<feBlend mode="normal" in="SourceGraphic" in2="BackgroundImageFix" result="shape"/>
<feGaussianBlur stdDeviation="13.5914" result="effect1_foregroundBlur_411_2"/>
</filter>
</defs>
</svg>
