<svg width="106" height="81" viewBox="0 0 106 81" fill="none" xmlns="http://www.w3.org/2000/svg">
<g opacity="0.848005" filter="url(#filter0_f_411_0)">
<rect x="28" y="28" width="50" height="25" rx="12.5" fill="#F03E3D"/>
</g>
<rect x="28" y="3" width="50" height="50" rx="19" fill="#F03E3D"/>
<path d="M53 36.1429C53.1429 36.1429 53.2857 36.0893 53.3929 35.9821L58.9554 30.625C59.0357 30.5446 61 28.75 61 26.6071C61 23.9911 59.4018 22.4286 56.7321 22.4286C55.1696 22.4286 53.7054 23.6607 53 24.3571C52.2946 23.6607 50.8304 22.4286 49.2679 22.4286C46.5982 22.4286 45 23.9911 45 26.6071C45 28.75 46.9643 30.5446 47.0357 30.6071L52.6071 35.9821C52.7143 36.0893 52.8571 36.1429 53 36.1429Z" fill="white"/>
<defs>
<filter id="filter0_f_411_0" x="0.817183" y="0.817183" width="104.366" height="79.3656" filterUnits="userSpaceOnUse" color-interpolation-filters="sRGB">
<feFlood flood-opacity="0" result="BackgroundImageFix"/>
<feBlend mode="normal" in="SourceGraphic" in2="BackgroundImageFix" result="shape"/>
<feGaussianBlur stdDeviation="13.5914" result="effect1_foregroundBlur_411_0"/>
</filter>
</defs>
</svg>
